# xmcd CD database file
#
# Track frame offsets:
#	192
#	33702
#	67647
#	103685
#	135697
#	168747
#
# Disc length: 2677 seconds
#
# Revision: 0
# Processed by: cddbd v1.5.1PL0 Copyright (c) Steve Scherf et al.
# Submitted via: CDex 1.51
#
DISCID=4e0a7306
DTITLE=Nusrat Fateh Ali Khan - Mighty Khan
DYEAR=1992
DGENRE=Qawwali
TTITLE0=Allah Hoo
TTITLE1=Mast Nazron Se
TTITLE2=Jana Jogi De Naal
TTITLE3=Yadan Vichhray Sajjan
TTITLE4=Nit Khair Mangan
TTITLE5=Haq Ali Haq
EXTD=YEAR: 1992
EXTT0=
EXTT1=
EXTT2=
EXTT3=
EXTT4=
EXTT5=
PLAYORDER=
